<svg
				width="25"
				height="31"
				viewBox="0 0 25 31"
				fill="none"
				xmlns="http://www.w3.org/2000/svg"
			>
				<path
					fill-rule="evenodd"
					clip-rule="evenodd"
					d="M6.30651 1.67282C10.2081 -0.594156 15.0037 -0.554533 18.8686 1.77661C22.6956 4.15523 25.0215 8.40036 24.9998 12.9669C24.9108 17.5036 22.4167 21.768 19.2992 25.0646C17.4998 26.9759 15.4869 28.6659 13.3016 30.1002C13.0765 30.2304 12.83 30.3175 12.5742 30.3573C12.3279 30.3468 12.0881 30.2741 11.8764 30.1456C8.5401 27.9905 5.61313 25.2395 3.23632 22.0251C1.24748 19.3418 0.117562 16.1001 2.07787e-06 12.7401C-0.00258187 8.16477 2.40495 3.93979 6.30651 1.67282ZM8.56174 14.6338C9.21803 16.2518 10.7671 17.3072 12.4858 17.3072C13.6117 17.3153 14.694 16.8643 15.4915 16.0547C16.2891 15.2452 16.7356 14.1443 16.7316 12.9974C16.7376 11.2468 15.7069 9.66513 14.1209 8.99095C12.5348 8.31677 10.7062 8.68304 9.48881 9.91876C8.27143 11.1545 7.90545 13.0159 8.56174 14.6338Z"
					fill="#218BFF"></path>
				<ellipse
					opacity="0.4"
					cx="7.87454"
					cy="21.375"
					rx="5.62503"
					ry="1.12501"
					fill="#218BFF"></ellipse>
			</svg>