<svg width="322" height="56" viewBox="0 0 322 56" fill="none" xmlns="http://www.w3.org/2000/svg">
<circle cx="19.5" cy="43.5" r="12.5" fill="#203D72"/>
<line x1="28" y1="41.5" x2="330" y2="41.5" stroke="#203D72" stroke-width="5"/>
<path d="M4.6885 4.696C5.48317 4.696 6.14983 4.83733 6.6885 5.12C7.2325 5.40267 7.64317 5.784 7.9205 6.264C8.19783 6.73867 8.3365 7.26133 8.3365 7.832C8.3365 8.30133 8.2565 8.76 8.0965 9.208C7.9365 9.656 7.67517 10.128 7.3125 10.624C6.95517 11.12 6.4805 11.672 5.8885 12.28C5.2965 12.8827 4.56583 13.5707 3.6965 14.344H8.5925L8.3605 16H1.2805V14.456C2.04317 13.72 2.70183 13.072 3.2565 12.512C3.81117 11.9467 4.27517 11.448 4.6485 11.016C5.02717 10.584 5.32583 10.1973 5.5445 9.856C5.7685 9.50933 5.9285 9.18667 6.0245 8.888C6.1205 8.58933 6.1685 8.29067 6.1685 7.992C6.1685 7.48533 6.02183 7.08533 5.7285 6.792C5.4405 6.49867 5.03517 6.352 4.5125 6.352C4.0485 6.352 3.65383 6.44267 3.3285 6.624C3.0085 6.8 2.69383 7.088 2.3845 7.488L1.0565 6.48C1.47783 5.91467 1.97917 5.47733 2.5605 5.168C3.14183 4.85333 3.85117 4.696 4.6885 4.696ZM14.7063 4.696C15.9809 4.696 16.9436 5.2 17.5943 6.208C18.2449 7.21067 18.5703 8.624 18.5703 10.448C18.5703 12.2773 18.2449 13.7013 17.5943 14.72C16.9436 15.7333 15.9809 16.24 14.7063 16.24C13.4263 16.24 12.4609 15.7333 11.8103 14.72C11.1649 13.7013 10.8423 12.2773 10.8423 10.448C10.8423 8.624 11.1649 7.21067 11.8103 6.208C12.4609 5.2 13.4263 4.696 14.7063 4.696ZM14.7063 6.264C14.1036 6.264 13.6476 6.58667 13.3383 7.232C13.0343 7.872 12.8823 8.944 12.8823 10.448C12.8823 11.28 12.9116 11.9707 12.9703 12.52C13.0343 13.064 13.1383 13.4933 13.2823 13.808C13.4263 14.1227 13.6129 14.3467 13.8423 14.48C14.0769 14.608 14.3649 14.672 14.7063 14.672C15.1116 14.672 15.4476 14.536 15.7143 14.264C15.9863 13.9867 16.1889 13.5387 16.3223 12.92C16.4556 12.296 16.5223 11.472 16.5223 10.448C16.5223 9.36 16.4636 8.512 16.3463 7.904C16.2343 7.296 16.0449 6.872 15.7783 6.632C15.5169 6.38667 15.1596 6.264 14.7063 6.264ZM16.0903 6.624L16.6343 7.936L13.4823 14.4L12.8343 13.328L16.0903 6.624ZM25.972 4.936V15.68H23.9V7.064L21.54 8.528L20.636 7.064L24.108 4.936H25.972ZM28.124 14.376V16H21.22V14.376H28.124ZM34.6138 4.696C35.0831 4.696 35.5098 4.75733 35.8938 4.88C36.2831 4.99733 36.6324 5.16533 36.9418 5.384L36.1338 6.696C35.9098 6.54133 35.6698 6.42667 35.4138 6.352C35.1578 6.27733 34.8991 6.24 34.6378 6.24C34.1578 6.24 33.7364 6.39733 33.3738 6.712C33.0164 7.02667 32.7364 7.48 32.5338 8.072C32.3364 8.65867 32.2351 9.368 32.2298 10.2L32.2458 10.88C32.2404 12.1707 32.3684 13.128 32.6298 13.752C32.8964 14.376 33.3658 14.688 34.0378 14.688C34.5924 14.688 35.0031 14.4693 35.2698 14.032C35.5364 13.5947 35.6698 13.04 35.6698 12.368C35.6698 11.824 35.6084 11.3947 35.4858 11.08C35.3631 10.76 35.1924 10.5307 34.9738 10.392C34.7551 10.248 34.4911 10.176 34.1818 10.176C33.7658 10.176 33.3738 10.2987 33.0058 10.544C32.6431 10.784 32.3338 11.1067 32.0778 11.512L32.0618 10.056C32.4138 9.57067 32.8164 9.216 33.2698 8.992C33.7231 8.768 34.1951 8.656 34.6858 8.656C35.2564 8.656 35.7764 8.79467 36.2458 9.072C36.7151 9.344 37.0884 9.74667 37.3658 10.28C37.6484 10.8133 37.7898 11.472 37.7898 12.256C37.7898 13.024 37.6324 13.7093 37.3177 14.312C37.0031 14.9093 36.5604 15.3813 35.9898 15.728C35.4244 16.0693 34.7684 16.24 34.0218 16.24C33.3071 16.24 32.6991 16.1067 32.1978 15.84C31.6964 15.568 31.2884 15.192 30.9738 14.712C30.6591 14.2267 30.4271 13.6613 30.2778 13.016C30.1338 12.3653 30.0618 11.6667 30.0618 10.92C30.0618 9.68267 30.2431 8.59733 30.6058 7.664C30.9684 6.72533 31.4884 5.99733 32.1658 5.48C32.8484 4.95733 33.6644 4.696 34.6138 4.696Z" fill="black"/>
</svg>
