<svg width="322" height="56" viewBox="0 0 322 56" fill="none" xmlns="http://www.w3.org/2000/svg">
<circle cx="19.5" cy="43.5" r="12.5" fill="#203D72"/>
<line x1="43" y1="41.5" x2="322" y2="41.5" stroke="#203D72" stroke-width="5"/>
<path d="M4.6885 4.696C5.48317 4.696 6.14983 4.83733 6.6885 5.12C7.2325 5.40267 7.64317 5.784 7.9205 6.264C8.19783 6.73867 8.3365 7.26133 8.3365 7.832C8.3365 8.30133 8.2565 8.76 8.0965 9.208C7.9365 9.656 7.67517 10.128 7.3125 10.624C6.95517 11.12 6.4805 11.672 5.8885 12.28C5.2965 12.8827 4.56583 13.5707 3.6965 14.344H8.5925L8.3605 16H1.2805V14.456C2.04317 13.72 2.70183 13.072 3.2565 12.512C3.81117 11.9467 4.27517 11.448 4.6485 11.016C5.02717 10.584 5.32583 10.1973 5.5445 9.856C5.7685 9.50933 5.9285 9.18667 6.0245 8.888C6.1205 8.58933 6.1685 8.29067 6.1685 7.992C6.1685 7.48533 6.02183 7.08533 5.7285 6.792C5.4405 6.49867 5.03517 6.352 4.5125 6.352C4.0485 6.352 3.65383 6.44267 3.3285 6.624C3.0085 6.8 2.69383 7.088 2.3845 7.488L1.0565 6.48C1.47783 5.91467 1.97917 5.47733 2.5605 5.168C3.14183 4.85333 3.85117 4.696 4.6885 4.696ZM14.7063 4.696C15.9809 4.696 16.9436 5.2 17.5943 6.208C18.2449 7.21067 18.5703 8.624 18.5703 10.448C18.5703 12.2773 18.2449 13.7013 17.5943 14.72C16.9436 15.7333 15.9809 16.24 14.7063 16.24C13.4263 16.24 12.4609 15.7333 11.8103 14.72C11.1649 13.7013 10.8423 12.2773 10.8423 10.448C10.8423 8.624 11.1649 7.21067 11.8103 6.208C12.4609 5.2 13.4263 4.696 14.7063 4.696ZM14.7063 6.264C14.1036 6.264 13.6476 6.58667 13.3383 7.232C13.0343 7.872 12.8823 8.944 12.8823 10.448C12.8823 11.28 12.9116 11.9707 12.9703 12.52C13.0343 13.064 13.1383 13.4933 13.2823 13.808C13.4263 14.1227 13.6129 14.3467 13.8423 14.48C14.0769 14.608 14.3649 14.672 14.7063 14.672C15.1116 14.672 15.4476 14.536 15.7143 14.264C15.9863 13.9867 16.1889 13.5387 16.3223 12.92C16.4556 12.296 16.5223 11.472 16.5223 10.448C16.5223 9.36 16.4636 8.512 16.3463 7.904C16.2343 7.296 16.0449 6.872 15.7783 6.632C15.5169 6.38667 15.1596 6.264 14.7063 6.264ZM16.0903 6.624L16.6343 7.936L13.4823 14.4L12.8343 13.328L16.0903 6.624ZM25.972 4.936V15.68H23.9V7.064L21.54 8.528L20.636 7.064L24.108 4.936H25.972ZM28.124 14.376V16H21.22V14.376H28.124ZM33.7898 4.696C34.6591 4.696 35.3818 4.88267 35.9578 5.256C36.5391 5.62933 36.9738 6.14933 37.2618 6.816C37.5551 7.48267 37.7018 8.26133 37.7018 9.152C37.7018 10.2293 37.5738 11.1707 37.3177 11.976C37.0671 12.776 36.6778 13.4613 36.1498 14.032C35.6271 14.5973 34.9578 15.0747 34.1418 15.464C33.3311 15.8533 32.3684 16.176 31.2538 16.432L30.8058 14.92C31.7871 14.6587 32.6111 14.344 33.2778 13.976C33.9444 13.608 34.4618 13.1547 34.8298 12.616C35.1978 12.0773 35.4244 11.424 35.5098 10.656L35.5178 9.832C35.5284 9 35.4831 8.32 35.3818 7.792C35.2858 7.264 35.1098 6.87467 34.8538 6.624C34.6031 6.37333 34.2458 6.248 33.7818 6.248C33.2378 6.248 32.8138 6.43733 32.5098 6.816C32.2111 7.18933 32.0618 7.76 32.0618 8.528C32.0618 9.264 32.2111 9.78933 32.5098 10.104C32.8084 10.4133 33.1898 10.568 33.6538 10.568C34.0858 10.568 34.4698 10.464 34.8058 10.256C35.1418 10.0427 35.4698 9.744 35.7898 9.36L35.7658 10.696C35.3978 11.1227 34.9978 11.464 34.5658 11.72C34.1391 11.9707 33.6378 12.096 33.0618 12.096C32.4698 12.096 31.9364 11.952 31.4618 11.664C30.9871 11.3707 30.6111 10.96 30.3338 10.432C30.0564 9.904 29.9178 9.27733 29.9178 8.552C29.9178 7.75733 30.0884 7.072 30.4298 6.496C30.7764 5.92 31.2404 5.47733 31.8218 5.168C32.4084 4.85333 33.0644 4.696 33.7898 4.696Z" fill="black"/>
</svg>
