<svg width="322" height="56" viewBox="0 0 322 56" fill="none" xmlns="http://www.w3.org/2000/svg">
<circle cx="19.5" cy="43.5" r="12.5" fill="#203D72"/>
<line x1="43" y1="41.5" x2="322" y2="41.5" stroke="#203D72" stroke-width="5"/>
<path d="M4.6885 4.696C5.48317 4.696 6.14983 4.83733 6.6885 5.12C7.2325 5.40267 7.64317 5.784 7.9205 6.264C8.19783 6.73867 8.3365 7.26133 8.3365 7.832C8.3365 8.30133 8.2565 8.76 8.0965 9.208C7.9365 9.656 7.67517 10.128 7.3125 10.624C6.95517 11.12 6.4805 11.672 5.8885 12.28C5.2965 12.8827 4.56583 13.5707 3.6965 14.344H8.5925L8.3605 16H1.2805V14.456C2.04317 13.72 2.70183 13.072 3.2565 12.512C3.81117 11.9467 4.27517 11.448 4.6485 11.016C5.02717 10.584 5.32583 10.1973 5.5445 9.856C5.7685 9.50933 5.9285 9.18667 6.0245 8.888C6.1205 8.58933 6.1685 8.29067 6.1685 7.992C6.1685 7.48533 6.02183 7.08533 5.7285 6.792C5.4405 6.49867 5.03517 6.352 4.5125 6.352C4.0485 6.352 3.65383 6.44267 3.3285 6.624C3.0085 6.8 2.69383 7.088 2.3845 7.488L1.0565 6.48C1.47783 5.91467 1.97917 5.47733 2.5605 5.168C3.14183 4.85333 3.85117 4.696 4.6885 4.696ZM14.7063 4.696C15.9809 4.696 16.9436 5.2 17.5943 6.208C18.2449 7.21067 18.5703 8.624 18.5703 10.448C18.5703 12.2773 18.2449 13.7013 17.5943 14.72C16.9436 15.7333 15.9809 16.24 14.7063 16.24C13.4263 16.24 12.4609 15.7333 11.8103 14.72C11.1649 13.7013 10.8423 12.2773 10.8423 10.448C10.8423 8.624 11.1649 7.21067 11.8103 6.208C12.4609 5.2 13.4263 4.696 14.7063 4.696ZM14.7063 6.264C14.1036 6.264 13.6476 6.58667 13.3383 7.232C13.0343 7.872 12.8823 8.944 12.8823 10.448C12.8823 11.28 12.9116 11.9707 12.9703 12.52C13.0343 13.064 13.1383 13.4933 13.2823 13.808C13.4263 14.1227 13.6129 14.3467 13.8423 14.48C14.0769 14.608 14.3649 14.672 14.7063 14.672C15.1116 14.672 15.4476 14.536 15.7143 14.264C15.9863 13.9867 16.1889 13.5387 16.3223 12.92C16.4556 12.296 16.5223 11.472 16.5223 10.448C16.5223 9.36 16.4636 8.512 16.3463 7.904C16.2343 7.296 16.0449 6.872 15.7783 6.632C15.5169 6.38667 15.1596 6.264 14.7063 6.264ZM16.0903 6.624L16.6343 7.936L13.4823 14.4L12.8343 13.328L16.0903 6.624ZM23.876 4.696C24.6707 4.696 25.3373 4.83733 25.876 5.12C26.42 5.40267 26.8307 5.784 27.108 6.264C27.3853 6.73867 27.524 7.26133 27.524 7.832C27.524 8.30133 27.444 8.76 27.284 9.208C27.124 9.656 26.8627 10.128 26.5 10.624C26.1427 11.12 25.668 11.672 25.076 12.28C24.484 12.8827 23.7533 13.5707 22.884 14.344H27.78L27.548 16H20.468V14.456C21.2307 13.72 21.8893 13.072 22.444 12.512C22.9987 11.9467 23.4627 11.448 23.836 11.016C24.2147 10.584 24.5133 10.1973 24.732 9.856C24.956 9.50933 25.116 9.18667 25.212 8.888C25.308 8.58933 25.356 8.29067 25.356 7.992C25.356 7.48533 25.2093 7.08533 24.916 6.792C24.628 6.49867 24.2227 6.352 23.7 6.352C23.236 6.352 22.8413 6.44267 22.516 6.624C22.196 6.8 21.8813 7.088 21.572 7.488L20.244 6.48C20.6653 5.91467 21.1667 5.47733 21.748 5.168C22.3293 4.85333 23.0387 4.696 23.876 4.696ZM33.8938 4.696C35.1684 4.696 36.1311 5.2 36.7818 6.208C37.4324 7.21067 37.7578 8.624 37.7578 10.448C37.7578 12.2773 37.4324 13.7013 36.7818 14.72C36.1311 15.7333 35.1684 16.24 33.8938 16.24C32.6138 16.24 31.6484 15.7333 30.9978 14.72C30.3524 13.7013 30.0298 12.2773 30.0298 10.448C30.0298 8.624 30.3524 7.21067 30.9978 6.208C31.6484 5.2 32.6138 4.696 33.8938 4.696ZM33.8938 6.264C33.2911 6.264 32.8351 6.58667 32.5258 7.232C32.2218 7.872 32.0698 8.944 32.0698 10.448C32.0698 11.28 32.0991 11.9707 32.1578 12.52C32.2218 13.064 32.3258 13.4933 32.4698 13.808C32.6138 14.1227 32.8004 14.3467 33.0298 14.48C33.2644 14.608 33.5524 14.672 33.8938 14.672C34.2991 14.672 34.6351 14.536 34.9018 14.264C35.1738 13.9867 35.3764 13.5387 35.5098 12.92C35.6431 12.296 35.7098 11.472 35.7098 10.448C35.7098 9.36 35.6511 8.512 35.5338 7.904C35.4218 7.296 35.2324 6.872 34.9658 6.632C34.7044 6.38667 34.3471 6.264 33.8938 6.264ZM35.2778 6.624L35.8218 7.936L32.6698 14.4L32.0218 13.328L35.2778 6.624Z" fill="black"/>
</svg>
