<svg width="320" height="56" viewBox="0 0 320 56" fill="none" xmlns="http://www.w3.org/2000/svg">
<circle cx="305" cy="43.5" r="12.5" fill="#203D72"/>
<path d="M296.949 16L293.693 6.808C293.72 7.01067 293.752 7.272 293.789 7.592C293.827 7.912 293.861 8.27467 293.893 8.68C293.931 9.08533 293.96 9.51467 293.981 9.968C294.008 10.4213 294.021 10.88 294.021 11.344V16H292.117V4.936H294.901L298.125 14.112C298.083 13.84 298.035 13.48 297.981 13.032C297.933 12.584 297.891 12.0693 297.853 11.488C297.816 10.9067 297.797 10.288 297.797 9.632V4.936H299.701V16H296.949ZM305.511 7.288C306.354 7.288 307.068 7.472 307.655 7.84C308.242 8.208 308.687 8.728 308.991 9.4C309.3 10.0667 309.455 10.848 309.455 11.744C309.455 12.6613 309.3 13.456 308.991 14.128C308.682 14.8 308.234 15.32 307.647 15.688C307.06 16.056 306.346 16.24 305.503 16.24C304.666 16.24 303.951 16.0613 303.359 15.704C302.772 15.3413 302.324 14.8267 302.015 14.16C301.706 13.488 301.551 12.688 301.551 11.76C301.551 10.8747 301.706 10.096 302.015 9.424C302.324 8.752 302.775 8.22933 303.367 7.856C303.959 7.47733 304.674 7.288 305.511 7.288ZM305.511 8.88C304.919 8.88 304.476 9.112 304.183 9.576C303.895 10.04 303.751 10.768 303.751 11.76C303.751 12.7627 303.895 13.496 304.183 13.96C304.471 14.4187 304.911 14.648 305.503 14.648C306.095 14.648 306.535 14.4187 306.823 13.96C307.111 13.496 307.255 12.7573 307.255 11.744C307.255 10.7573 307.111 10.0347 306.823 9.576C306.535 9.112 306.098 8.88 305.511 8.88ZM318.465 16H315.985L315.129 10.12L314.217 16H311.785L310.433 7.528H312.417L313.153 14.688L314.201 8.6H316.145L317.105 14.688L317.857 7.528H319.761L318.465 16Z" fill="black"/>
<line y1="41.5" x2="279" y2="41.5" stroke="#203D72" stroke-width="5"/>
</svg>
